<?xml version="1.0" encoding="UTF-8"?>
<svg width="29px" height="23px" viewBox="0 0 29 23" version="1.1" xmlns="http://www.w3.org/2000/svg" xmlns:xlink="http://www.w3.org/1999/xlink">
    <!-- Generator: Sketch 49.3 (51167) - http://www.bohemiancoding.com/sketch -->
    <title>account</title>
    <desc>Created with Sketch.</desc>
    <defs></defs>
    <g id="Page-1" stroke="none" stroke-width="1" fill="none" fill-rule="evenodd">
        <g id="iPhone-8-filteren-geselecteerd" transform="translate(-25.000000, -82.000000)">
            <g id="account" transform="translate(24.000000, 80.000000)">
                <g id="Page-1" transform="translate(2.000000, 3.000000)">
                    <path d="M17.0384924,15 L11.9615076,15 C11.4322374,15 11,14.5306796 11,13.957935 L11,11.042065 C11,10.4693204 11.4322374,10 11.9615076,10 L17.0384924,10 C17.5669607,10 18,10.4693204 18,11.042065 L18,13.957935 C18,14.5306796 17.5669607,15 17.0384924,15" id="Fill-1" fill="#A62181"></path>
                    <path d="M17.0384924,15 L11.9615076,15 C11.4322374,15 11,14.5306796 11,13.957935 L11,11.042065 C11,10.4693204 11.4322374,10 11.9615076,10 L17.0384924,10 C17.5669607,10 18,10.4693204 18,11.042065 L18,13.957935 C18,14.5306796 17.5669607,15 17.0384924,15 Z" id="Stroke-3" stroke="#A62181"></path>
                    <path d="M14.499583,13 C13.1251043,13 12,11.9255888 12,10.6122426 L12,8.38696097 C12,7.0744112 13.1251043,6 14.499583,6 C15.8748957,6 17,7.0744112 17,8.38696097 L17,10.6122426 C17,11.9255888 15.8748957,13 14.499583,13 Z" id="Stroke-5" stroke="#A81A81"></path>
                    <path d="M25.8476562,21 L1.15234375,21 C0.515625,21 0,20.4798201 0,19.8384486 L0,1.16155143 C0,0.520179876 0.515625,0 1.15234375,0 L25.8476562,0 C26.4835938,0 27,0.520179876 27,1.16155143 L27,19.8384486 C27,20.4798201 26.4835938,21 25.8476562,21 Z" id="Stroke-7" stroke="#A81A81"></path>
                </g>
            </g>
        </g>
    </g>
</svg>